<svg width="100%" height="100%" id="svg" preserveAspectRatio="none meet" viewBox="0 0 1440 390" xmlns="http://www.w3.org/2000/svg" class="transition duration-300 ease-in-out delay-150"><defs><linearGradient id="gradient" x1="0%" y1="50%" x2="100%" y2="50%"><stop offset="5%" stop-color="#F78DA7"></stop><stop offset="95%" stop-color="#8ED1FC"></stop></linearGradient></defs><path d="M 0,400 L 0,250 C 94.24880382775117,231.96172248803828 188.49760765550235,213.92344497607655 280,209 C 371.50239234449765,204.07655502392345 460.2583732057417,212.26794258373207 545,187 C 629.7416267942583,161.73205741626793 710.4688995215311,103.00478468899522 824,71 C 937.5311004784689,38.995215311004785 1083.866028708134,33.71291866028708 1192,18 C 1300.133971291866,2.2870813397129184 1370.066985645933,-23.85645933014354 1440,-50 L 1440,400 L 0,400 Z" stroke="none" stroke-width="0" fill="url(#gradient)" fill-opacity="0.53" class="transition-all duration-300 ease-in-out delay-150 path-0"></path><defs><linearGradient id="gradient" x1="0%" y1="50%" x2="100%" y2="50%"><stop offset="5%" stop-color="#F78DA7"></stop><stop offset="95%" stop-color="#8ED1FC"></stop></linearGradient></defs><path d="M 0,400 L 0,383 C 95.28229665071771,361.1626794258373 190.56459330143542,339.32535885167465 296,334 C 401.4354066985646,328.67464114832535 517.023923444976,339.8612440191388 611,321 C 704.976076555024,302.1387559808612 777.3397129186602,253.22966507177034 868,223 C 958.6602870813398,192.77033492822966 1067.6172248803828,181.2200956937799 1166,161 C 1264.3827751196172,140.7799043062201 1352.1913875598086,111.88995215311004 1440,83 L 1440,400 L 0,400 Z" stroke="none" stroke-width="0" fill="url(#gradient)" fill-opacity="1" class="transition-all duration-300 ease-in-out delay-150 path-1"></path></svg>